<?xml version="1.0" encoding="UTF-8"?>
<svg id="Layer_1" data-name="Layer 1" xmlns="http://www.w3.org/2000/svg" viewBox="0 0 1172.05 410.47">
  <defs>
    <style>
      .cls-1 {
        fill: #4c66aa;
      }
    </style>
  </defs>
  <path class="cls-1" d="M378.29,273.65c-4.78,0-9.28,1.19-13.25,3.25l-53.49-54.3c3.8-4.87,6.08-10.98,6.08-17.63s-2.11-12.26-5.63-17.03l52.92-52.13c3.99,2.1,8.54,3.31,13.37,3.31,15.87,0,28.74-12.87,28.74-28.74s-12.87-28.74-28.74-28.74c-10.36,0-19.41,5.5-24.47,13.72l-21.39-2.27c-1.83-8.32-8.26-14.9-16.49-16.98l-3.99-21.78c9.32-4.75,15.72-14.42,15.72-25.6,0-15.87-12.87-28.74-28.74-28.74s-28.74,12.87-28.74,28.74c0,4.89,1.23,9.48,3.38,13.51l-55.17,54.35c-4.05-2.18-8.67-3.42-13.59-3.42-5.91,0-11.41,1.79-15.98,4.85l-52.97-53.78c2.06-3.96,3.24-8.46,3.24-13.23,0-15.87-12.87-28.74-28.74-28.74s-28.74,12.87-28.74,28.74c0,9.83,4.94,18.5,12.47,23.68l-2.39,22.53c-8.43,2.43-14.82,9.63-16.07,18.5l-20.34,3.73c-4.3-10.45-14.57-17.82-26.58-17.82-15.87,0-28.74,12.87-28.74,28.74s12.87,28.74,28.74,28.74c4.94,0,9.59-1.25,13.65-3.44l55.05,55.88c-2.92,4.5-4.64,9.85-4.64,15.62,0,3.9,.78,7.61,2.19,11l-55.27,54.44c-2.65-.81-5.46-1.25-8.37-1.25-15.87,0-28.74,12.87-28.74,28.74s12.87,28.74,28.74,28.74c10.95,0,20.47-6.13,25.32-15.14l20.27,2.15c1.36,9.15,8.19,16.49,17.07,18.6l3.95,21.57c-9.47,4.7-16,14.44-16,25.73,0,15.87,12.87,28.74,28.74,28.74s28.74-12.87,28.74-28.74c0-6.7-2.31-12.86-6.16-17.75l53.18-52.39c5.09,4.56,11.78,7.35,19.15,7.35,5.02,0,9.73-1.29,13.83-3.55l51.91,52.7c-2.19,4.06-3.44,8.7-3.44,13.63,0,15.87,12.87,28.74,28.74,28.74s28.74-12.87,28.74-28.74c0-10.78-5.95-20.16-14.73-25.08l2.18-20.58c10.14-1.71,17.96-10.17,18.7-20.61l19.65-3.6c3.92,11.2,14.56,19.25,27.1,19.25,15.87,0,28.74-12.87,28.74-28.74s-12.87-28.74-28.74-28.74Zm-162.4-10.24c-3.2-1.23-6.65-1.93-10.28-1.93-5.74,0-11.07,1.7-15.56,4.6l-43.74-44.4c2.5-4.26,3.96-9.21,3.96-14.51,0-6.82-2.39-13.07-6.35-18l44.41-43.74c4.67,3.28,10.35,5.23,16.49,5.23,4.84,0,9.39-1.21,13.39-3.32l44.71,45.39c-1.76,3.72-2.77,7.86-2.77,12.24s1,8.46,2.73,12.16l-46.99,46.29ZM354.66,126.71l-53.23,52.43c-3.8-1.85-8.04-2.91-12.55-2.91-6.5,0-12.47,2.18-17.29,5.82l-43.15-43.81c3.21-4.64,5.1-10.26,5.1-16.33s-1.84-11.55-4.97-16.15l54.13-53.32c4.54,3.11,10.01,4.95,15.91,5.01l3.58,19.51c-8.39,3.29-14.35,11.44-14.35,21,0,12.46,10.1,22.56,22.56,22.56,9.36,0,17.38-5.7,20.8-13.81l18.43,1.95c-.03,.57-.09,1.13-.09,1.7,0,6.07,1.9,11.7,5.11,16.34ZM110.37,59.76c6.12,0,11.79-1.93,16.45-5.2l52.77,53.57c-2.24,4.09-3.52,8.78-3.52,13.78s1.18,9.24,3.23,13.2l-46.38,45.68c-3.5-1.51-7.35-2.36-11.4-2.36-5.15,0-9.97,1.37-14.14,3.74l-54.86-55.69c2.66-3.92,4.36-8.52,4.81-13.49l20.58-3.77c3.75,7.27,11.31,12.24,20.05,12.24,12.46,0,22.56-10.1,22.56-22.56,0-9.84-6.31-18.19-15.1-21.27l1.91-18.03c1,.1,2.01,.16,3.03,.16Zm-58.58,220.16l51.4-50.63c4.98,4.13,11.37,6.62,18.34,6.62,5.61,0,10.82-1.63,15.25-4.41l43.86,44.53c-2.39,4.19-3.77,9.03-3.77,14.2,0,3.48,.65,6.79,1.78,9.88l-56.25,55.41c-3.4-1.52-7.14-2.39-11.08-2.47l-3.6-19.63c8.25-3.36,14.06-11.44,14.06-20.89,0-12.46-10.1-22.56-22.56-22.56-8.79,0-16.39,5.04-20.11,12.37l-19.04-2.02c0-.07,.01-.13,.01-.2,0-7.87-3.17-14.99-8.29-20.18Zm244.86,73.08c-5.97,0-11.52,1.82-16.12,4.94l-51.02-51.79c3.04-4.56,4.83-10.04,4.83-15.93,0-7.21-2.68-13.79-7.06-18.83l44.24-43.57c4.83,3.68,10.84,5.89,17.38,5.89,4.23,0,8.24-.94,11.86-2.58l54,54.82c-2.5,3.58-4.19,7.75-4.85,12.27l-21.57,3.95c-3.96-6.5-11.09-10.86-19.26-10.86-12.46,0-22.56,10.1-22.56,22.56,0,8.95,5.23,16.67,12.79,20.31l-2,18.86c-.21,0-.42-.03-.64-.03Z"/>
  <g>
    <path class="cls-1" d="M528.28,134.35c.6-4.42,2.27-7.8,5.01-10.15,2.74-2.35,5.84-3.53,9.31-3.53s6.43,.9,9.02,2.7,4.28,4.44,5.09,7.9l33.05,113.43h.43l33.05-114.28c.81-3.08,2.5-5.47,5.07-7.19s5.44-2.57,8.62-2.57c3.78,0,7.04,1.11,9.76,3.34,2.72,2.23,4.39,5.37,4.99,9.44l22.6,132.73c0,4.35-.9,7.58-2.71,9.68-1.8,2.1-4.02,3.16-6.63,3.16-2.44,0-4.57-.76-6.4-2.28-1.82-1.52-2.94-3.59-3.36-6.21l-17.83-125.09-37.82,125.94c-1.27,5.09-4.39,7.64-9.33,7.64-2.16,0-4.16-.72-6.02-2.15s-3.1-3.26-3.74-5.49l-37.4-125.94-18.25,125.94c-.42,2.9-1.63,5.19-3.63,6.87-2,1.68-4.32,2.52-6.98,2.52-2.23,0-4.22-.95-5.97-2.86s-2.73-4.65-2.94-8.22c.28-1.17,.43-2.62,.43-4.35l22.6-130.98Z"/>
    <path class="cls-1" d="M697.97,130.85c0-2.97,.91-5.34,2.73-7.11s4.02-2.65,6.6-2.65,4.9,.86,6.76,2.6c1.86,1.73,2.78,4.12,2.78,7.16v92.99c0,8.1,1.81,15.04,5.41,20.8,3.6,5.77,8.62,10.12,15.03,13.05,6.42,2.93,13.66,4.4,21.72,4.4,8.06-.25,15.08-1.99,21.08-5.23,5.99-3.24,10.6-7.71,13.81-13.42s4.83-12.25,4.83-19.6v-92.99c0-2.97,.86-5.34,2.6-7.11s3.84-2.65,6.31-2.65c2.76,0,5.07,.86,6.94,2.6,1.87,1.73,2.81,4.12,2.81,7.16v86.7c0,12.44-2.14,23.25-6.42,32.4-4.28,9.16-10.81,16.22-19.59,21.19-8.79,4.97-19.74,7.45-32.85,7.45-10.21,0-19.15-1.43-26.81-4.3-7.65-2.86-13.97-6.98-18.96-12.36-4.98-5.37-8.69-11.75-11.14-19.14-2.44-7.38-3.66-15.66-3.66-24.82v-87.12Z"/>
    <path class="cls-1" d="M847.19,131.27c0-3.36,.92-5.89,2.76-7.61s4.17-2.57,7-2.57c6.08,0,9.12,3.69,9.12,11.08v127.27h39.08c2.97,0,5.56,.72,7.77,2.18,2.2,1.45,3.31,3.55,3.31,6.31,0,3.89-1,6.42-3,7.58s-3.67,1.75-5.01,1.75h-52.13c-2.33,0-4.36-.87-6.1-2.6-1.87-1.66-2.81-4.63-2.81-8.91V131.27Z"/>
    <path class="cls-1" d="M937.77,140.23h-29.79c-2.62,0-4.71-.86-6.26-2.58s-2.44-3.84-2.66-6.35c.22-2.45,1.13-4.54,2.76-6.28,1.63-1.74,3.82-2.6,6.58-2.6h77.53c3.08,0,5.41,.85,7,2.55s2.39,3.81,2.39,6.33-.74,4.68-2.23,6.38-3.57,2.55-6.26,2.55h-29.96v128.54c0,3-.98,5.39-2.93,7.16-1.96,1.77-4.24,2.65-6.85,2.65s-4.68-.88-6.53-2.65-2.77-4.15-2.77-7.16V140.23Z"/>
    <path class="cls-1" d="M1008.98,131.27c0-6.79,3.25-10.18,9.76-10.18,2.54,0,4.7,.85,6.47,2.54,1.77,1.7,2.65,4.24,2.65,7.64v136.66c0,4.03-.97,6.82-2.92,8.35-1.94,1.54-4.02,2.31-6.2,2.31-6.51,0-9.76-3.41-9.76-10.24V131.27Z"/>
    <path class="cls-1" d="M1098.23,194.06l-40.62-57.11c-1.98-3.47-3.15-6.22-3.5-8.27,0-2.15,.87-3.96,2.6-5.41,1.73-1.45,3.7-2.17,5.89-2.17,4.31,0,7.56,1.73,9.75,5.19l36.96,53.88,36.91-53.88c2.19-3.46,5.3-5.19,9.33-5.19,2.19,0,4.09,.72,5.68,2.17s2.39,3.41,2.39,5.89-.88,5.18-2.65,7.8l-40.62,57.11,49.1,69.31c1.73,2.37,2.6,4.9,2.6,7.58,0,2.09-.87,3.88-2.6,5.39-1.73,1.5-3.84,2.25-6.31,2.25-3.36,0-6.17-1.61-8.43-4.83l-45.39-64.48-45.45,64.48c-2.02,3.22-4.97,4.83-8.85,4.83-1.98,0-3.84-.8-5.57-2.39-1.73-1.59-2.71-3.49-2.92-5.68,.42-2.23,1.29-4.4,2.6-6.52l49.1-69.95Z"/>
  </g>
</svg>