<svg width="98" height="98" viewBox="0 0 98 98" fill="none" xmlns="http://www.w3.org/2000/svg">
<g clip-path="url(#clip0_6_2)">
<rect width="98" height="98" fill="white"/>
<rect width="98" height="98" rx="24" fill="#D6E4E3"/>
<g clip-path="url(#clip1_6_2)">
<path fill-rule="evenodd" clip-rule="evenodd" d="M49 77C64.464 77 77 64.464 77 49C77 33.536 64.464 21 49 21C33.536 21 21 33.536 21 49C21 64.464 33.536 77 49 77ZM49 81C66.6731 81 81 66.6731 81 49C81 31.3269 66.6731 17 49 17C31.3269 17 17 31.3269 17 49C17 66.6731 31.3269 81 49 81Z" fill="black"/>
<path fill-rule="evenodd" clip-rule="evenodd" d="M27.9312 50.3736C32.0664 53.9129 38.4858 57.2513 46.2328 59.3271C53.9798 61.4029 61.2083 61.7215 66.5592 60.724C72.229 59.667 74.3855 57.4913 74.8078 55.9152C75.2302 54.3391 74.4504 51.3767 70.0686 47.6263C65.9334 44.087 59.514 40.7487 51.767 38.6729C44.0201 36.5971 36.7915 36.2785 31.4407 37.276C25.7708 38.333 23.6143 40.5087 23.192 42.0848C22.7697 43.6609 23.5494 46.6233 27.9312 50.3736ZM19.3283 41.0495C17.2283 48.8869 28.8103 58.7998 45.1975 63.1908C61.5847 67.5817 76.5715 64.7878 78.6715 56.9505C80.7715 49.1131 69.1895 39.2002 52.8023 34.8092C36.4151 30.4183 21.4283 33.2122 19.3283 41.0495Z" fill="black"/>
<path d="M63.1421 43.3432C60.799 45.6863 57 45.6863 54.6568 43.3432C52.3137 41 52.3137 37.2011 54.6568 34.8579C57 32.5148 60.799 32.5148 63.1421 34.8579C65.4853 37.2011 65.4853 41 63.1421 43.3432Z" fill="black"/>
<path d="M39.8076 61.0209C37.4644 63.364 33.6654 63.364 31.3223 61.0209C28.9792 58.6777 28.9792 54.8787 31.3223 52.5356C33.6654 50.1924 37.4644 50.1924 39.8076 52.5356C42.1507 54.8787 42.1507 58.6777 39.8076 61.0209Z" fill="black"/>
</g>
</g>
<defs>
<clipPath id="clip0_6_2">
<rect width="98" height="98" fill="white"/>
</clipPath>
<clipPath id="clip1_6_2">
<rect width="64" height="64" fill="white" transform="translate(17 17)"/>
</clipPath>
</defs>
</svg>
