<?xml version="1.0" encoding="UTF-8"?>
<svg id="CIRCLE_OUTLINE_BLACK" xmlns="http://www.w3.org/2000/svg" viewBox="0 0 512 512"><script xmlns=""/><script xmlns=""/><g id="usdt-circle-solid-default"><path d="M284.24493,237.63214v37.71594c-1.58948,.14532-10.24982,.86285-27.47516,.86285-14.34161,0-24.73218-.6131-28.3653-.86285v-37.71594c-55.4635,2.46143-96.87152,12.10724-96.87152,23.66501s41.4035,21.21722,96.87152,23.67407v-.04541c3.57401,.18622,13.7149,.59491,28.12915,.59491,18.02917,0,26.1264-.4859,27.70221-.58582v.02728l.00909-.02277c55.34088-2.46594,96.66718-12.13901,96.66718-23.65588s-41.30811-21.18546-96.66718-23.6514Z" fill="#26a17b"/><path d="M256,0C114.61511,0,0,114.61511,0,256s114.61511,256,256,256,256-114.61511,256-256S397.38489,0,256,0Zm28.23584,294.12659v108.20673h-55.85858v-108.19769c-62.76147-2.90186-109.99152-15.33612-109.99152-30.23175s47.20734-27.32983,109.99152-30.21362v-33.75125h-77.25293v-51.46719h210.33722v51.46719h-77.24384v33.77856l.01813,.00909c62.67065,2.89282,109.78265,15.31793,109.78265,30.20001s-47.112,27.3071-109.78265,30.19992Z" fill="#26a17b"/></g></svg>