<?xml version="1.0" encoding="UTF-8" standalone="no"?>
<svg
   version="1.0"
   width="300.000000pt"
   height="169.000000pt"
   viewBox="0 0 300.000000 169.000000"
   preserveAspectRatio="xMidYMid meet"
   id="svg10"
   sodipodi:docname="walletconnect-mine.svg"
   inkscape:version="1.1.2 (0a00cf5339, 2022-02-04)"
   xmlns:inkscape="http://www.inkscape.org/namespaces/inkscape"
   xmlns:sodipodi="http://sodipodi.sourceforge.net/DTD/sodipodi-0.dtd"
   xmlns="http://www.w3.org/2000/svg"
   xmlns:svg="http://www.w3.org/2000/svg">
  <defs
     id="defs14" />
  <sodipodi:namedview
     id="namedview12"
     pagecolor="#ffffff"
     bordercolor="#666666"
     borderopacity="1.0"
     inkscape:pageshadow="2"
     inkscape:pageopacity="0.0"
     inkscape:pagecheckerboard="0"
     inkscape:document-units="pt"
     showgrid="false"
     inkscape:zoom="1.6280585"
     inkscape:cx="93.055624"
     inkscape:cy="184.57568"
     inkscape:window-width="1920"
     inkscape:window-height="1015"
     inkscape:window-x="0"
     inkscape:window-y="0"
     inkscape:window-maximized="1"
     inkscape:current-layer="svg10" />
  <metadata
     id="metadata2">
Created by potrace 1.10, written by Peter Selinger 2001-2011
</metadata>
  <g
     transform="translate(0.000000,169.000000) scale(0.100000,-0.100000)"
     fill="#000000"
     stroke="none"
     id="g8"
     style="stroke:#4c66aa;stroke-opacity:1;fill:#4c66aa;fill-opacity:1">
    <path
       d="m 1330,1528 c -246,-67 -341,-115 -470,-235 -25,-23 -54,-50 -66,-60 -11,-10 -26,-28 -33,-41 -12,-22 -6,-30 80,-118 51,-52 98,-94 104,-94 6,0 29,19 51,43 68,73 168,145 249,178 33,13 30,12 101,32 80,23 317,15 358,-11 6,-3 16,-7 23,-8 53,-8 184,-94 269,-176 l 60,-59 95,96 c 52,53 95,100 97,105 4,12 -88,105 -163,165 -79,63 -236,138 -355,168 -78,20 -119.0255,26.3782 -230,24 -117.8454,-2.5254 -50.4087,2.9377 -170,-9 z"
       id="path4"
       sodipodi:nodetypes="cccccscccccccccccsc"
       style="stroke:#4c66aa;stroke-opacity:1;fill:#4c66aa;fill-opacity:1" />
    <path
       d="M525 952 c-25 -6 -175 -162 -175 -183 0 -23 648 -669 671 -669 11 0 115 96 249 230 126 126 231 230 233 230 2 0 106 -103 232 -230 150 -151 236 -230 250 -230 22 0 675 646 675 668 0 19 -162 183 -185 187 -15 2 -81 -58 -255 -231 l-235 -234 -234 234 c-188 188 -237 233 -255 229 -11 -3 -123 -108 -247 -234 l-226 -230 -224 226 c-123 125 -231 230 -239 234 -8 4 -24 6 -35 3z m235 -238 c113 -113 217 -214 232 -225 26 -19 30 -19 50 -5 13 9 118 111 234 227 133 132 218 210 228 207 9 -1 109 -96 223 -209 246 -244 247 -244 282 -223 15 9 121 110 235 225 115 115 215 209 223 209 18 0 153 -131 153 -149 0 -16 -618 -641 -634 -641 -5 0 -111 101 -236 225 -142 141 -235 225 -247 225 -12 0 -103 -83 -245 -225 -176 -176 -229 -223 -244 -219 -11 3 -159 144 -328 314 -350 353 -327 311 -225 413 31 31 66 57 76 57 10 0 107 -89 223 -206z"
       id="path6"
       style="stroke:#4c66aa;stroke-opacity:1;fill:#4c66aa;fill-opacity:1" />
    <path
       style="fill:#4c66aa;fill-opacity:1;stroke-width:0.341006;stroke:#4c66aa;stroke-opacity:1"
       d="M 134.46563,210.62543 C 123.71832,202.13017 59.163465,137.85221 48.450334,124.97907 l -1.746686,-2.09885 0.774348,-1.38164 c 1.339028,-2.38917 6.013768,-7.72651 12.197968,-13.92691 7.362298,-7.38158 9.687684,-9.191448 11.809527,-9.191448 0.83143,0 2.009346,0.207933 2.61759,0.462074 1.520558,0.635329 12.390467,11.236904 39.340329,38.369154 l 22.90632,23.06135 23.33774,-23.52941 c 26.61737,-26.83596 38.67785,-38.3518 40.17441,-38.360138 0.95886,-0.0053 4.46118,2.530288 8.49277,6.148648 2.15686,1.93578 15.70218,15.26568 30.10071,29.62199 21.12157,21.5638 9.20089,42.81444 30.53798,21.55605 31.22648,-31.11131 54.4366,-53.56916 58.83167,-56.487321 1.64412,-1.091636 1.96255,-1.190788 2.66477,-0.829753 2.23737,1.150307 9.85866,8.177264 16.07466,14.821114 5.1213,5.4738 7.74076,8.75449 7.74076,9.69475 0,0.83439 -4.62338,5.93344 -16.29637,17.97302 -22.93753,23.65784 -64.15829,63.77769 -71.61655,69.70384 l -1.80892,1.43731 -1.77165,-1.22385 c -4.27232,-2.95134 -19.53315,-17.59027 -46.60874,-44.70939 -8.53083,-8.54454 -15.64365,-15.53553 -15.80627,-15.53553 -0.16263,0 -9.60956,9.24553 -20.99319,20.54561 -26.03002,25.83899 -37.7143,36.95875 -41.8654,39.84266 l -1.42182,0.9878 z"
       id="path983"
       transform="matrix(7.5,0,0,-7.5,0,1690)"
       sodipodi:nodetypes="sscssssscsssccsssssscssssscs" />
    <path
       style="fill:#4c66aa;fill-opacity:1;stroke-width:0.341006;stroke:#4c66aa;stroke-opacity:1"
       d=""
       id="path1022"
       transform="matrix(7.5,0,0,-7.5,0,1690)" />
    <path
       style="fill:#4c66aa;fill-opacity:1;stroke:#4c66aa;stroke-width:0.341006;stroke-opacity:1"
       d="m 134.82156,210.95248 c -8.13303,-5.95623 -75.571807,-73.02991 -86.03733,-85.57154 l -2.083068,-2.4963 0.775591,-1.38385 c 1.33245,-2.37742 5.996495,-7.70947 12.199211,-13.94644 3.137554,-2.49629 11.979926,-13.652701 14.433854,-8.70924 2.50243,3.02018 11.684245,10.50492 38.644622,37.66854 l 23.58138,23.75915 23.51549,-23.69991 c 27.15102,-27.36396 38.50495,-38.192668 40.04509,-38.192668 0.88018,0 4.40522,2.500288 7.94674,5.636568 1.87553,1.66093 15.41148,14.98341 30.07989,29.60552 l 26.66984,26.58565 21.9838,-21.82825 c 21.93794,-21.78272 31.12552,-30.67897 36.80019,-35.63327 2.80628,-2.45004 5.86362,-4.707224 6.37591,-4.707224 1.26449,0 10.5716,8.402174 17.07641,15.416054 4.91108,5.29543 7.47602,8.53881 7.47602,9.45346 0,1.30304 -15.17557,17.20114 -39.10047,40.96209 -25.5521,25.37701 -44.55197,43.54441 -49.43424,47.26829 l -1.15666,0.88223 -1.34706,-0.89144 c -4.13375,-2.73559 -12.74946,-10.9238 -39.48925,-37.52986 l -23.2813,-23.16488 -1.26109,1.16776 c -0.69361,0.64226 -10.32139,10.14474 -21.39509,21.1166 -11.07369,10.97187 -23.04752,22.6989 -26.6085,26.06007 -6.34899,5.99275 -13.4304,12.24826 -14.53445,12.83931 -0.39781,0.21296 -0.93578,0.0218 -1.87553,-0.66642 z"
       id="path1061"
       transform="matrix(7.5,0,0,-7.5,0,1690)"
       sodipodi:nodetypes="sscsccscsssscssssssscsscsssss" />
    <path
       style="fill:#4c66aa;fill-opacity:1;stroke-width:0.0507709;stroke:#4c66aa;stroke-opacity:1"
       d=""
       id="path1139"
       transform="matrix(7.5,0,0,-7.5,0,1690)" />
  </g>
  <path
     style="fill:#4c66aa;fill-opacity:1;stroke:#4c66aa;stroke-width:0.273392;stroke-opacity:1"
     d="m 125.20579,94.000103 c -2.31958,-1.567052 -13.25887,-12.117807 -19.02968,-18.353799 -5.52276,-5.967948 -5.93305,-7.033186 -3.91281,-10.15889 1.28735,-1.99178 3.05122,-3.792629 9.32572,-9.521242 9.57448,-8.741484 13.53538,-11.973295 19.33439,-15.775489 10.02901,-6.575641 21.03215,-11.131459 40.21967,-16.652838 5.8696,-1.689026 6.42451,-1.796909 12.11654,-2.355621 5.43621,-0.533601 7.15763,-0.574946 19.4108,-0.466212 14.548,0.129098 15.308,0.190303 22.83491,1.838964 19.2045,4.206472 41.72068,14.668147 54.44757,25.297937 7.70238,6.433195 17.53602,16.200475 19.0846,18.9558 l 0.61598,1.095993 -1.67341,1.944303 c -2.64114,3.068692 -6.82158,7.429991 -15.64802,16.325006 l -8.19378,8.257437 -5.36278,-5.152989 c -6.31877,-6.071591 -8.96631,-8.372632 -14.04012,-12.202614 -9.73849,-7.35114 -18.18238,-12.181713 -23.88268,-13.662776 -1.43444,-0.372701 -3.08279,-0.919815 -3.66298,-1.215808 -5.85554,-2.987275 -29.30984,-4.249499 -43.13426,-2.321326 -3.21468,0.44837 -11.84319,2.803318 -16.1493,4.407571 -11.00714,4.100739 -22.35074,11.873183 -34.08101,23.351738 -5.39452,5.278761 -7.13701,6.821518 -7.70468,6.821518 -0.13129,0 -0.54289,-0.205498 -0.91467,-0.456663 z"
     id="path10149"
     transform="scale(0.75)" />
</svg>
